<svg width="16" height="16" viewBox="0 0 16 16" fill="none" xmlns="http://www.w3.org/2000/svg">
<g id="eye for password" clip-path="url(#clip0_169_555)">
<path id="Vector" d="M14.8168 1.18247C14.6668 1.03249 14.4633 0.948242 14.2512 0.948242C14.0391 0.948242 13.8356 1.03249 13.6856 1.18247L1.184 13.6857C1.10759 13.7595 1.04665 13.8477 1.00472 13.9453C0.962792 14.0429 0.940723 14.1479 0.9398 14.2541C0.938877 14.3604 0.959118 14.4657 0.999343 14.564C1.03957 14.6624 1.09897 14.7517 1.17408 14.8268C1.2492 14.9019 1.33852 14.9613 1.43684 15.0015C1.53515 15.0418 1.6405 15.062 1.74672 15.0611C1.85294 15.0601 1.95792 15.0381 2.05552 14.9962C2.15313 14.9542 2.2414 14.8933 2.3152 14.8169L14.816 2.31367C14.966 2.16365 15.0502 1.9602 15.0502 1.74807C15.0502 1.53594 14.9668 1.33249 14.8168 1.18247ZM2.4864 10.7985L4.5344 8.75047C4.476 8.50456 4.44568 8.25282 4.444 8.00007C4.444 6.09687 6.036 4.55287 8 4.55287C8.2288 4.55287 8.4512 4.57847 8.668 4.61847L9.6304 3.65687C9.0915 3.56759 8.54625 3.52211 8 3.52087C2.752 3.52007 0 7.38487 0 8.00007C0 8.33847 0.8456 9.67287 2.4864 10.7985ZM13.516 5.20407L11.4664 7.25207C11.5216 7.49367 11.5552 7.74247 11.5552 8.00007C11.5552 9.90327 9.964 11.4457 8 11.4457C7.7728 11.4457 7.552 11.4201 7.3368 11.3809L6.3736 12.3433C6.8872 12.4265 7.4264 12.4793 8 12.4793C13.248 12.4793 16 8.61287 16 8.00007C16 7.66087 15.1552 6.32807 13.516 5.20407Z" fill="#C4C4C4"/>
</g>
<defs>
<clipPath id="clip0_169_555">
<rect width="16" height="16" fill="white"/>
</clipPath>
</defs>
</svg>
