<svg width="29" height="28" viewBox="0 0 29 28" fill="none" xmlns="http://www.w3.org/2000/svg">
<g id="Favorite border" clip-path="url(#clip0_123_2760)">
<path id="Vector" d="M19.5 3.5C17.47 3.5 15.5216 4.445 14.25 5.93833C12.9783 4.445 11.03 3.5 8.99998 3.5C5.40665 3.5 2.58331 6.32333 2.58331 9.91667C2.58331 14.3267 6.54998 17.92 12.5583 23.38L14.25 24.9083L15.9416 23.3683C21.95 17.92 25.9166 14.3267 25.9166 9.91667C25.9166 6.32333 23.0933 3.5 19.5 3.5ZM14.3666 21.6417L14.25 21.7583L14.1333 21.6417C8.57998 16.6133 4.91665 13.2883 4.91665 9.91667C4.91665 7.58333 6.66665 5.83333 8.99998 5.83333C10.7966 5.83333 12.5466 6.98833 13.165 8.58667H15.3466C15.9533 6.98833 17.7033 5.83333 19.5 5.83333C21.8333 5.83333 23.5833 7.58333 23.5833 9.91667C23.5833 13.2883 19.92 16.6133 14.3666 21.6417Z" fill="#878787"/>
</g>
<defs>
<clipPath id="clip0_123_2760">
<rect width="28" height="28" fill="white" transform="translate(0.25)"/>
</clipPath>
</defs>
</svg>
