<svg width="27" height="26" viewBox="0 0 27 26" fill="none" xmlns="http://www.w3.org/2000/svg">
<g id="Group">
<path id="Vector" fill-rule="evenodd" clip-rule="evenodd" d="M18.4997 1.3335H22.3108C23.8875 1.3335 25.1666 2.62371 25.1666 4.21538V8.05828C25.1666 9.64874 23.8875 10.9402 22.3108 10.9402H18.4997C16.9218 10.9402 15.6427 9.64874 15.6427 8.05828V4.21538C15.6427 2.62371 16.9218 1.3335 18.4997 1.3335ZM4.69039 1.3335H8.50022C10.0782 1.3335 11.3573 2.62371 11.3573 4.21538V8.05828C11.3573 9.64874 10.0782 10.9402 8.50022 10.9402H4.69039C3.11242 10.9402 1.83331 9.64874 1.83331 8.05828V4.21538C1.83331 2.62371 3.11242 1.3335 4.69039 1.3335ZM4.69039 15.0602H8.50022C10.0782 15.0602 11.3573 16.3504 11.3573 17.9432V21.7849C11.3573 23.3766 10.0782 24.6668 8.50022 24.6668H4.69039C3.11242 24.6668 1.83331 23.3766 1.83331 21.7849V17.9432C1.83331 16.3504 3.11242 15.0602 4.69039 15.0602ZM18.4997 15.0602H22.3108C23.8875 15.0602 25.1666 16.3504 25.1666 17.9432V21.7849C25.1666 23.3766 23.8875 24.6668 22.3108 24.6668H18.4997C16.9218 24.6668 15.6427 23.3766 15.6427 21.7849V17.9432C15.6427 16.3504 16.9218 15.0602 18.4997 15.0602Z" stroke="#878787" stroke-width="2.5" stroke-linecap="round" stroke-linejoin="round"/>
</g>
</svg>
