<?xml version="1.0" encoding="UTF-8"?>
<!DOCTYPE svg PUBLIC "-//W3C//DTD SVG 1.1//EN" "http://www.w3.org/Graphics/SVG/1.1/DTD/svg11.dtd">
<svg xmlns="http://www.w3.org/2000/svg" version="1.1" width="595px" height="445px" style="shape-rendering:geometricPrecision; text-rendering:geometricPrecision; image-rendering:optimizeQuality; fill-rule:evenodd; clip-rule:evenodd" xmlns:xlink="http://www.w3.org/1999/xlink">
<g><path style="opacity:0.902" fill="#0c0d11" d="M 229.5,-0.5 C 235.833,-0.5 242.167,-0.5 248.5,-0.5C 265.128,4.27334 278.295,13.94 288,28.5C 302.186,50.7255 310.186,75.0588 312,101.5C 313.232,112.479 313.566,123.479 313,134.5C 309,142.5 305,142.5 301,134.5C 301.397,108.33 297.063,82.997 288,58.5C 282.148,44.5909 273.315,33.0909 261.5,24C 239.224,13.0939 220.724,17.5939 206,37.5C 190.29,60.3286 182.623,85.662 183,113.5C 180.598,119.849 176.931,120.849 172,116.5C 169.515,85.902 176.181,57.2353 192,30.5C 198.14,21.0293 205.64,12.8626 214.5,6C 219.367,3.22592 224.367,1.05926 229.5,-0.5 Z"/></g>
<g><path style="opacity:0.78" fill="#0b0d10" d="M 526.5,37.5 C 530.211,36.8457 532.211,38.3457 532.5,42C 530.743,62.1628 529.076,82.3295 527.5,102.5C 525.167,102.5 522.833,102.5 520.5,102.5C 521.892,80.7255 523.892,59.0589 526.5,37.5 Z"/></g>
<g><path style="opacity:0.591" fill="#0b0d10" d="M 501.5,51.5 C 503.144,51.2865 504.644,51.6198 506,52.5C 506.497,55.146 506.664,57.8127 506.5,60.5C 500.651,59.399 498.985,56.399 501.5,51.5 Z"/></g>
<g><path style="opacity:0.844" fill="#0b0d10" d="M 594.5,80.5 C 594.5,84.1667 594.5,87.8333 594.5,91.5C 593.674,95.9819 593.174,100.649 593,105.5C 592.273,109.689 590.773,113.522 588.5,117C 585.97,118.422 583.303,118.755 580.5,118C 573.6,115.524 566.6,113.857 559.5,113C 559.383,128.869 551.883,133.369 537,126.5C 536.349,124.765 536.515,123.098 537.5,121.5C 540.441,120.478 543.441,119.645 546.5,119C 549.347,116.429 550.013,113.429 548.5,110C 543.091,110.047 538.925,107.88 536,103.5C 534.927,93.6891 535.594,84.0224 538,74.5C 543.904,65.5453 550.571,65.212 558,73.5C 559.248,82.4252 559.915,91.4252 560,100.5C 560.374,101.416 560.874,102.25 561.5,103C 568.482,104.287 575.315,106.12 582,108.5C 582.667,107.833 583.333,107.167 584,106.5C 585.502,96.8215 587.002,87.1548 588.5,77.5C 590.947,77.615 592.947,78.615 594.5,80.5 Z M 546.5,75.5 C 549.192,76.0087 551.692,77.0087 554,78.5C 554.632,84.2142 554.299,89.8809 553,95.5C 551.6,100.091 549.1,100.757 545.5,97.5C 541.509,90.0489 541.843,82.7156 546.5,75.5 Z"/></g>
<g><path style="opacity:0.813" fill="#0b0d10" d="M 509.5,68.5 C 513.451,68.2846 515.784,70.1179 516.5,74C 514.934,82.7527 514.1,91.586 514,100.5C 512.802,106.436 510.635,111.936 507.5,117C 498.419,121.307 491.252,119.141 486,110.5C 482.748,100.827 482.748,91.16 486,81.5C 487.715,78.6026 490.215,77.2693 493.5,77.5C 493.192,81.5948 492.359,85.5948 491,89.5C 490.333,93.8333 490.333,98.1667 491,102.5C 493.633,107.732 497.799,109.565 503.5,108C 508.155,96.5527 509.488,84.7194 507.5,72.5C 507.752,70.9271 508.418,69.5938 509.5,68.5 Z"/></g>
<g><path style="opacity:0.942" fill="#0b0d10" d="M 446.5,89.5 C 453.249,89.744 458.416,92.744 462,98.5C 469.333,113.833 469.333,129.167 462,144.5C 454.293,155.027 445.96,155.693 437,146.5C 427.425,130.39 427.091,114.057 436,97.5C 438.855,93.7893 442.355,91.1226 446.5,89.5 Z"/></g>
<g><path style="opacity:0.961" fill="#0c0d11" d="M -0.5,138.5 C -0.5,131.167 -0.5,123.833 -0.5,116.5C 1.11327,114.73 3.11327,113.564 5.5,113C 15.2095,110.656 24.8762,108.156 34.5,105.5C 36.7738,105.97 38.7738,106.97 40.5,108.5C 54.7925,140.747 68.7925,173.08 82.5,205.5C 92.9695,168.96 103.136,132.293 113,95.5C 115.574,92.9727 118.74,91.806 122.5,92C 132.167,91.3333 141.833,91.3333 151.5,92C 154.879,97.8409 155.379,104.008 153,110.5C 129.313,134.531 113.98,163.198 107,196.5C 97.7166,243.122 100.05,289.122 114,334.5C 119.473,346.779 125.473,358.779 132,370.5C 132.865,375.239 131.698,379.406 128.5,383C 117.761,383.259 107.095,384.259 96.5,386C 92.0895,387.036 87.7562,388.369 83.5,390C 76.3496,390.33 69.3496,391.497 62.5,393.5C 55.3004,392.791 52.1337,388.791 53,381.5C 52.3333,368.167 52.3333,354.833 53,341.5C 56.858,338.988 61.0247,337.155 65.5,336C 66.6667,334.833 67.8333,333.667 69,332.5C 69.0481,314.076 67.7148,295.743 65,277.5C 50.1946,242.751 35.1946,208.084 20,173.5C 15.3951,169.778 10.2284,166.945 4.5,165C 3.29857,164.097 2.46524,162.931 2,161.5C 1.66667,154.833 1.33333,148.167 1,141.5C 0.76791,140.263 0.26791,139.263 -0.5,138.5 Z"/></g>
<g><path style="opacity:1" fill="#fa6e25" d="M 209.5,112.5 C 211.905,113.768 214.572,114.435 217.5,114.5C 221.582,115.376 225.249,117.043 228.5,119.5C 229.035,121.446 230.368,122.446 232.5,122.5C 235.109,123.443 237.109,125.11 238.5,127.5C 240.833,130.5 243.5,133.167 246.5,135.5C 247.833,136.167 248.833,137.167 249.5,138.5C 249.427,140.027 250.094,141.027 251.5,141.5C 253.262,142.262 254.262,143.596 254.5,145.5C 254.427,147.027 255.094,148.027 256.5,148.5C 256.427,150.027 257.094,151.027 258.5,151.5C 259.338,151.842 259.672,152.508 259.5,153.5C 259.427,155.027 260.094,156.027 261.5,156.5C 263.008,158.181 264.008,160.181 264.5,162.5C 264.66,164.153 265.326,165.486 266.5,166.5C 270.565,172.635 273.565,179.301 275.5,186.5C 275.054,189.01 275.72,191.01 277.5,192.5C 277.294,195.495 277.96,198.162 279.5,200.5C 280.341,202.379 280.675,204.379 280.5,206.5C 280.083,210.817 280.75,214.817 282.5,218.5C 283.219,220.764 283.552,223.097 283.5,225.5C 284.176,241.825 284.51,258.158 284.5,274.5C 284.5,275.5 284.5,276.5 284.5,277.5C 282.957,283.28 281.957,289.28 281.5,295.5C 279.421,300.169 278.421,305.169 278.5,310.5C 277.076,312.515 276.41,314.848 276.5,317.5C 276.405,319.786 275.738,321.786 274.5,323.5C 273.069,324.78 272.402,326.447 272.5,328.5C 272.737,329.791 272.404,330.791 271.5,331.5C 270.069,332.78 269.402,334.447 269.5,336.5C 269.598,338.553 268.931,340.22 267.5,341.5C 266.069,342.78 265.402,344.447 265.5,346.5C 264.341,350.151 262.674,353.485 260.5,356.5C 259.094,356.973 258.427,357.973 258.5,359.5C 258.672,360.492 258.338,361.158 257.5,361.5C 255.618,362.221 255.285,363.221 256.5,364.5C 265.884,380.272 273.384,396.938 279,414.5C 279.911,421.654 279.245,428.654 277,435.5C 274.758,439.919 271.258,442.586 266.5,443.5C 263.763,443.599 261.096,443.265 258.5,442.5C 257.5,440.833 256.167,439.5 254.5,438.5C 252.14,436.287 250.306,433.621 249,430.5C 246.82,424.812 244.653,419.146 242.5,413.5C 242.598,411.447 241.931,409.78 240.5,408.5C 238.13,404.414 236.13,400.081 234.5,395.5C 234.598,393.447 233.931,391.78 232.5,390.5C 232.38,389.414 231.713,388.747 230.5,388.5C 227.824,388.939 225.491,389.939 223.5,391.5C 220.069,394.317 216.069,395.983 211.5,396.5C 201.473,396.699 191.473,396.366 181.5,395.5C 179.898,393.926 177.898,393.259 175.5,393.5C 172.515,392.674 169.849,391.341 167.5,389.5C 167.027,388.094 166.027,387.427 164.5,387.5C 163.415,385.413 161.749,384.08 159.5,383.5C 159.167,382.833 158.833,382.167 158.5,381.5C 161.269,360.261 152.936,344.428 133.5,334C 130.568,332.855 127.568,332.022 124.5,331.5C 122.399,328.203 121.065,324.537 120.5,320.5C 120.258,316.521 119.258,312.854 117.5,309.5C 116.566,308.432 116.232,307.099 116.5,305.5C 115.064,295.998 113.397,286.665 111.5,277.5C 111.5,277.167 111.5,276.833 111.5,276.5C 111.5,263.167 111.5,249.833 111.5,236.5C 112.884,231.056 113.55,225.389 113.5,219.5C 113.646,215.613 114.313,211.946 115.5,208.5C 116.768,206.095 117.435,203.428 117.5,200.5C 117.5,200.167 117.5,199.833 117.5,199.5C 119.68,196.619 120.68,193.286 120.5,189.5C 123.484,178.533 127.817,168.2 133.5,158.5C 134.906,158.027 135.573,157.027 135.5,155.5C 135.328,154.508 135.662,153.842 136.5,153.5C 137.906,153.027 138.573,152.027 138.5,150.5C 139.906,150.027 140.573,149.027 140.5,147.5C 141.906,147.027 142.573,146.027 142.5,144.5C 142.833,143.5 143.5,142.833 144.5,142.5C 146.262,141.738 147.262,140.404 147.5,138.5C 149.833,135.5 152.5,132.833 155.5,130.5C 158.767,128.573 161.767,126.239 164.5,123.5C 164.738,125.404 165.738,126.738 167.5,127.5C 169.657,129.412 171.991,131.079 174.5,132.5C 175.312,133.993 176.645,134.66 178.5,134.5C 179.726,134.48 180.726,134.147 181.5,133.5C 185.014,130 187.014,125.666 187.5,120.5C 188.768,118.095 189.435,115.428 189.5,112.5C 196.167,111.167 202.833,111.167 209.5,112.5 Z M 219.5,162.5 C 219.973,163.906 220.973,164.573 222.5,164.5C 223.167,165.833 224.167,166.833 225.5,167.5C 227.167,169.833 229.167,171.833 231.5,173.5C 231.427,175.027 232.094,176.027 233.5,176.5C 236.867,181.523 240.2,186.523 243.5,191.5C 243.427,193.027 244.094,194.027 245.5,194.5C 245.98,197.443 246.98,200.11 248.5,202.5C 248.595,204.786 249.262,206.786 250.5,208.5C 250.41,211.152 251.076,213.485 252.5,215.5C 252.263,216.791 252.596,217.791 253.5,218.5C 253.41,221.152 254.076,223.485 255.5,225.5C 256.4,231.969 257.067,238.469 257.5,245C 256.718,255.153 256.385,265.319 256.5,275.5C 255.087,278.219 254.42,281.219 254.5,284.5C 253.055,287.937 252.055,291.603 251.5,295.5C 251.5,295.833 251.5,296.167 251.5,296.5C 250.262,298.214 249.595,300.214 249.5,302.5C 249.5,302.833 249.5,303.167 249.5,303.5C 248.262,305.214 247.595,307.214 247.5,309.5C 245.597,312.979 243.93,316.646 242.5,320.5C 241.094,320.973 240.427,321.973 240.5,323.5C 239.662,323.842 239.328,324.508 239.5,325.5C 237.738,326.262 236.738,327.596 236.5,329.5C 234.738,330.262 233.738,331.596 233.5,333.5C 232.5,333.833 231.833,334.5 231.5,335.5C 228.167,338.167 225.167,341.167 222.5,344.5C 220.847,344.66 219.514,345.326 218.5,346.5C 216.03,346.654 214.03,347.654 212.5,349.5C 211.209,349.263 210.209,349.596 209.5,350.5C 206.933,350.721 204.599,351.388 202.5,352.5C 196.697,352.791 191.03,352.125 185.5,350.5C 179.207,347.352 173.207,343.685 167.5,339.5C 167.262,337.596 166.262,336.262 164.5,335.5C 163.299,333.091 161.633,331.091 159.5,329.5C 159.573,327.973 158.906,326.973 157.5,326.5C 157.573,324.973 156.906,323.973 155.5,323.5C 155.672,322.508 155.338,321.842 154.5,321.5C 154.573,319.973 153.906,318.973 152.5,318.5C 149.831,312.496 147.164,306.496 144.5,300.5C 144.392,295.29 143.725,290.29 142.5,285.5C 142.5,285.167 142.5,284.833 142.5,284.5C 142.461,280.267 141.795,276.267 140.5,272.5C 140.5,259.833 140.5,247.167 140.5,234.5C 142.194,228.029 143.528,221.363 144.5,214.5C 145.924,212.485 146.59,210.152 146.5,207.5C 151.213,197.742 156.213,188.076 161.5,178.5C 162.906,178.027 163.573,177.027 163.5,175.5C 168.278,170.379 173.612,166.046 179.5,162.5C 181.027,162.573 182.027,161.906 182.5,160.5C 195.082,156.219 207.415,156.886 219.5,162.5 Z"/></g>
<g><path style="opacity:0.165" fill="#9a471d" d="M 209.5,112.5 C 212.495,112.294 215.162,112.96 217.5,114.5C 214.572,114.435 211.905,113.768 209.5,112.5 Z"/></g>
<g><path style="opacity:0.224" fill="#97461d" d="M 189.5,112.5 C 189.435,115.428 188.768,118.095 187.5,120.5C 187.294,117.505 187.96,114.838 189.5,112.5 Z"/></g>
<g><path style="opacity:1" fill="#b65320" d="M 228.5,119.5 C 230.23,120.026 231.564,121.026 232.5,122.5C 230.368,122.446 229.035,121.446 228.5,119.5 Z"/></g>
<g><path style="opacity:0.918" fill="#b4521f" d="M 164.5,123.5 C 166.262,124.262 167.262,125.596 167.5,127.5C 165.738,126.738 164.738,125.404 164.5,123.5 Z"/></g>
<g><path style="opacity:0.715" fill="#0b0d10" d="M 579.5,125.5 C 583.079,125.911 585.246,127.911 586,131.5C 587.466,129.675 589.299,129.175 591.5,130C 594.215,138.298 592.049,140.131 585,135.5C 580.478,136.691 577.645,134.858 576.5,130C 577.315,128.357 578.315,126.857 579.5,125.5 Z"/></g>
<g><path style="opacity:0.008" fill="#a14a1e" d="M 238.5,127.5 C 242.167,129.167 244.833,131.833 246.5,135.5C 243.5,133.167 240.833,130.5 238.5,127.5 Z"/></g>
<g><path style="opacity:1" fill="#cb5b22" d="M 164.5,123.5 C 161.767,126.239 158.767,128.573 155.5,130.5C 157.628,127.87 159.961,125.37 162.5,123C 163.437,122.308 164.103,122.475 164.5,123.5 Z"/></g>
<g><path style="opacity:0.958" fill="#0c0d11" d="M 277.5,131.5 C 283.712,131.942 289.712,133.275 295.5,135.5C 297.423,139.423 299.256,143.423 301,147.5C 304.112,150.723 307.612,151.223 311.5,149C 313.377,146.749 314.877,144.249 316,141.5C 319.761,138.641 322.761,139.308 325,143.5C 325.667,146.5 325.667,149.5 325,152.5C 319.839,175.969 315.839,199.636 313,223.5C 311.73,240.485 311.396,257.485 312,274.5C 313.074,285.823 316.741,296.156 323,305.5C 334.635,316.37 347.801,318.87 362.5,313C 371.832,304.507 377.666,294.007 380,281.5C 386.074,242.619 386.907,203.619 382.5,164.5C 382.514,152.891 388.181,149.057 399.5,153C 407.85,154.225 416.184,155.558 424.5,157C 427.696,157.396 430.53,158.562 433,160.5C 432.591,172.188 431.591,183.854 430,195.5C 427.73,198.477 424.73,200.477 421,201.5C 420.031,227.879 418.364,254.212 416,280.5C 413.379,305.371 405.046,328.038 391,348.5C 369.298,371.836 344.465,375.67 316.5,360C 300.068,348.221 289.068,332.554 283.5,313C 291.027,280.918 293.527,248.418 291,215.5C 288.493,193.474 283.16,172.14 275,151.5C 273.881,144.476 274.715,137.809 277.5,131.5 Z"/></g>
<g><path style="opacity:0.396" fill="#9d481d" d="M 174.5,132.5 C 176.764,133.219 179.097,133.552 181.5,133.5C 180.726,134.147 179.726,134.48 178.5,134.5C 176.645,134.66 175.312,133.993 174.5,132.5 Z"/></g>
<g><path style="opacity:0.976" fill="#b65220" d="M 147.5,138.5 C 147.262,140.404 146.262,141.738 144.5,142.5C 144.738,140.596 145.738,139.262 147.5,138.5 Z"/></g>
<g><path style="opacity:0.839" fill="#ae4f1f" d="M 249.5,138.5 C 250.906,138.973 251.573,139.973 251.5,141.5C 250.094,141.027 249.427,140.027 249.5,138.5 Z"/></g>
<g><path style="opacity:0.773" fill="#a74d1e" d="M 142.5,144.5 C 142.573,146.027 141.906,147.027 140.5,147.5C 140.427,145.973 141.094,144.973 142.5,144.5 Z"/></g>
<g><path style="opacity:0.831" fill="#b1511f" d="M 254.5,145.5 C 255.906,145.973 256.573,146.973 256.5,148.5C 255.094,148.027 254.427,147.027 254.5,145.5 Z"/></g>
<g><path style="opacity:0.804" fill="#af501f" d="M 140.5,147.5 C 140.573,149.027 139.906,150.027 138.5,150.5C 138.427,148.973 139.094,147.973 140.5,147.5 Z"/></g>
<g><path style="opacity:0.741" fill="#ab4e1f" d="M 256.5,148.5 C 257.906,148.973 258.573,149.973 258.5,151.5C 257.094,151.027 256.427,150.027 256.5,148.5 Z"/></g>
<g><path style="opacity:0.706" fill="#a84d1e" d="M 138.5,150.5 C 138.573,152.027 137.906,153.027 136.5,153.5C 136.427,151.973 137.094,150.973 138.5,150.5 Z"/></g>
<g><path style="opacity:0.655" fill="#a64c1e" d="M 259.5,153.5 C 260.906,153.973 261.573,154.973 261.5,156.5C 260.094,156.027 259.427,155.027 259.5,153.5 Z"/></g>
<g><path style="opacity:0.573" fill="#a04a1e" d="M 135.5,155.5 C 135.573,157.027 134.906,158.027 133.5,158.5C 133.427,156.973 134.094,155.973 135.5,155.5 Z"/></g>
<g><path style="opacity:0.943" fill="#0b0d10" d="M 441.5,157.5 C 449.387,159.677 457.387,161.344 465.5,162.5C 465.053,175.633 463.553,188.633 461,201.5C 458.116,203.268 455.449,205.268 453,207.5C 447.707,250.728 445.707,294.061 447,337.5C 449.628,339.126 451.961,341.126 454,343.5C 454.667,355.5 454.667,367.5 454,379.5C 452.818,381.357 451.151,382.357 449,382.5C 433.016,379.02 416.849,376.853 400.5,376C 397.932,374.873 396.598,372.873 396.5,370C 401.003,360.165 405.503,350.331 410,340.5C 416.215,321.637 420.215,302.304 422,282.5C 424.205,257.546 425.539,232.546 426,207.5C 428.904,205.773 432.07,205.107 435.5,205.5C 436.504,191.806 437.838,178.139 439.5,164.5C 439.643,161.887 440.31,159.553 441.5,157.5 Z"/></g>
<g><path style="opacity:0.958" fill="#0b0d10" d="M 475.5,159.5 C 478.808,158.974 480.974,160.307 482,163.5C 498.284,205.693 514.951,247.693 532,289.5C 533.564,251.108 535.898,212.775 539,174.5C 540.532,172.438 542.532,171.104 545,170.5C 555.544,173.817 566.377,175.65 577.5,176C 579.329,176.273 580.829,177.107 582,178.5C 582.564,181.155 583.064,183.821 583.5,186.5C 583.16,196.53 582.16,206.53 580.5,216.5C 577.016,217.563 573.516,218.563 570,219.5C 568.918,226.488 567.918,233.488 567,240.5C 565.46,290.901 562.793,341.234 559,391.5C 552.115,393.929 545.115,394.596 538,393.5C 534.806,388.446 532.139,383.112 530,377.5C 516.093,342.427 501.427,307.761 486,273.5C 483.691,309.487 481.358,345.487 479,381.5C 472.961,383.99 466.794,384.157 460.5,382C 459.299,381.097 458.465,379.931 458,378.5C 457.61,364.822 457.61,351.155 458,337.5C 456.248,334.328 454.248,331.328 452,328.5C 452.67,291.11 454.67,253.777 458,216.5C 458.667,214.5 459.333,212.5 460,210.5C 462.723,207.443 465.056,204.11 467,200.5C 469.408,187.562 470.575,174.895 470.5,162.5C 472.396,161.725 474.063,160.725 475.5,159.5 Z"/></g>
<g><path style="opacity:0.008" fill="#95451d" d="M 182.5,160.5 C 182.027,161.906 181.027,162.573 179.5,162.5C 179.973,161.094 180.973,160.427 182.5,160.5 Z"/></g>
<g><path style="opacity:0.714" fill="#a64c1e" d="M 219.5,162.5 C 221.027,162.427 222.027,163.094 222.5,164.5C 220.973,164.573 219.973,163.906 219.5,162.5 Z"/></g>
<g><path style="opacity:0.973" fill="#b1511f" d="M 222.5,164.5 C 224.5,164.5 225.5,165.5 225.5,167.5C 224.167,166.833 223.167,165.833 222.5,164.5 Z"/></g>
<g><path style="opacity:0.714" fill="#ae4f1f" d="M 264.5,162.5 C 266.104,163.287 266.771,164.62 266.5,166.5C 265.326,165.486 264.66,164.153 264.5,162.5 Z"/></g>
<g><path style="opacity:0.055" fill="#9b481d" d="M 231.5,173.5 C 232.906,173.973 233.573,174.973 233.5,176.5C 232.094,176.027 231.427,175.027 231.5,173.5 Z"/></g>
<g><path style="opacity:0.016" fill="#9a471d" d="M 163.5,175.5 C 163.573,177.027 162.906,178.027 161.5,178.5C 161.427,176.973 162.094,175.973 163.5,175.5 Z"/></g>
<g><path style="opacity:1" fill="#ba5420" d="M 275.5,186.5 C 276.738,188.214 277.405,190.214 277.5,192.5C 275.72,191.01 275.054,189.01 275.5,186.5 Z"/></g>
<g><path style="opacity:1" fill="#b85320" d="M 120.5,189.5 C 120.68,193.286 119.68,196.619 117.5,199.5C 117.899,195.884 118.899,192.55 120.5,189.5 Z"/></g>
<g><path style="opacity:0.404" fill="#9a471d" d="M 243.5,191.5 C 244.906,191.973 245.573,192.973 245.5,194.5C 244.094,194.027 243.427,193.027 243.5,191.5 Z"/></g>
<g><path style="opacity:0.769" fill="#a54b1e" d="M 277.5,192.5 C 278.768,194.905 279.435,197.572 279.5,200.5C 277.96,198.162 277.294,195.495 277.5,192.5 Z"/></g>
<g><path style="opacity:0.91" fill="#a64c1e" d="M 117.5,200.5 C 117.435,203.428 116.768,206.095 115.5,208.5C 115.294,205.505 115.96,202.838 117.5,200.5 Z"/></g>
<g><path style="opacity:0.769" fill="#a54c1e" d="M 248.5,202.5 C 250.074,204.102 250.741,206.102 250.5,208.5C 249.262,206.786 248.595,204.786 248.5,202.5 Z"/></g>
<g><path style="opacity:0.008" fill="#95451d" d="M 146.5,207.5 C 146.59,210.152 145.924,212.485 144.5,214.5C 144.41,211.848 145.076,209.515 146.5,207.5 Z"/></g>
<g><path style="opacity:0.039" fill="#98461d" d="M 250.5,208.5 C 251.924,210.515 252.59,212.848 252.5,215.5C 251.076,213.485 250.41,211.152 250.5,208.5 Z"/></g>
<g><path style="opacity:0.98" fill="#b0501f" d="M 280.5,206.5 C 281.617,210.295 282.283,214.295 282.5,218.5C 280.75,214.817 280.083,210.817 280.5,206.5 Z"/></g>
<g><path style="opacity:0.349" fill="#9d481d" d="M 144.5,214.5 C 143.528,221.363 142.194,228.029 140.5,234.5C 140.703,227.486 142.036,220.82 144.5,214.5 Z"/></g>
<g><path style="opacity:0.086" fill="#9d481e" d="M 253.5,218.5 C 254.924,220.515 255.59,222.848 255.5,225.5C 254.076,223.485 253.41,221.152 253.5,218.5 Z"/></g>
<g><path style="opacity:0.973" fill="#b0501f" d="M 113.5,219.5 C 113.55,225.389 112.884,231.056 111.5,236.5C 111.321,230.596 111.988,224.929 113.5,219.5 Z"/></g>
<g><path style="opacity:0.757" fill="#9d481d" d="M 283.5,225.5 C 285.539,241.807 285.872,258.14 284.5,274.5C 284.51,258.158 284.176,241.825 283.5,225.5 Z"/></g>
<g><path style="opacity:0.702" fill="#ab4e1f" d="M 255.5,225.5 C 257.723,231.678 258.723,238.178 258.5,245C 258.129,255.342 257.463,265.509 256.5,275.5C 256.385,265.319 256.718,255.153 257.5,245C 257.067,238.469 256.4,231.969 255.5,225.5 Z"/></g>
<g><path style="opacity:0.631" fill="#a44b1e" d="M 245.5,249.5 C 244.833,249.167 244.167,248.833 243.5,248.5C 243.369,247.624 243.702,246.957 244.5,246.5C 245.386,247.325 245.719,248.325 245.5,249.5 Z"/></g>
<g><path style="opacity:1" fill="#f56d25" d="M 243.5,248.5 C 244.167,248.833 244.833,249.167 245.5,249.5C 246.665,259.868 246.331,270.201 244.5,280.5C 243.679,284.127 242.346,287.46 240.5,290.5C 238.926,292.102 238.259,294.102 238.5,296.5C 236.96,303.251 233.626,308.918 228.5,313.5C 227.094,313.973 226.427,314.973 226.5,316.5C 226.167,317.5 225.5,318.167 224.5,318.5C 223.094,318.973 222.427,319.973 222.5,321.5C 218.373,327.726 212.707,331.726 205.5,333.5C 200.87,334.229 196.203,334.563 191.5,334.5C 187.703,334.128 184.37,332.794 181.5,330.5C 181.027,329.094 180.027,328.427 178.5,328.5C 178.027,327.094 177.027,326.427 175.5,326.5C 174.738,324.738 173.404,323.738 171.5,323.5C 169.167,321.833 167.167,319.833 165.5,317.5C 165.446,315.368 164.446,314.035 162.5,313.5C 161.11,312.101 160.11,310.434 159.5,308.5C 159.068,307.29 158.401,306.29 157.5,305.5C 156.326,304.486 155.66,303.153 155.5,301.5C 155.167,299.5 154.833,297.5 154.5,295.5C 155.5,295.5 156.5,295.5 157.5,295.5C 159.167,296.5 160.5,297.833 161.5,299.5C 161.973,300.906 162.973,301.573 164.5,301.5C 167.871,303.846 171.204,306.179 174.5,308.5C 175.78,309.931 177.447,310.598 179.5,310.5C 182.356,312.006 185.523,312.672 189,312.5C 193.095,312.569 196.928,311.903 200.5,310.5C 205.086,309.417 209.419,307.75 213.5,305.5C 216.5,304.5 218.5,302.5 219.5,299.5C 219.833,298.5 220.5,297.833 221.5,297.5C 223.262,296.738 224.262,295.404 224.5,293.5C 225.906,293.027 226.573,292.027 226.5,290.5C 230.813,281.549 234.813,272.549 238.5,263.5C 239.117,263.389 239.617,263.056 240,262.5C 240.567,259.832 241.067,257.166 241.5,254.5C 241.595,252.214 242.262,250.214 243.5,248.5 Z"/></g>
<g><path style="opacity:0.907" fill="#ad4f1f" d="M 111.5,236.5 C 111.5,249.833 111.5,263.167 111.5,276.5C 109.556,263.248 109.556,249.915 111.5,236.5 Z"/></g>
<g><path style="opacity:0.961" fill="#ab4e1f" d="M 245.5,249.5 C 246.811,252.968 247.811,256.634 248.5,260.5C 247.526,267.372 246.192,274.039 244.5,280.5C 246.331,270.201 246.665,259.868 245.5,249.5 Z"/></g>
<g><path style="opacity:1" fill="#b75320" d="M 241.5,254.5 C 241.067,257.166 240.567,259.832 240,262.5C 239.617,263.056 239.117,263.389 238.5,263.5C 238.747,260.146 239.747,257.146 241.5,254.5 Z"/></g>
<g><path style="opacity:0.91" fill="#a54c1e" d="M 256.5,275.5 C 256.58,278.781 255.913,281.781 254.5,284.5C 254.42,281.219 255.087,278.219 256.5,275.5 Z"/></g>
<g><path style="opacity:0.565" fill="#9a471d" d="M 140.5,272.5 C 141.795,276.267 142.461,280.267 142.5,284.5C 141.011,280.764 140.344,276.764 140.5,272.5 Z"/></g>
<g><path style="opacity:0.084" fill="#9b481d" d="M 284.5,277.5 C 284.561,283.804 283.561,289.804 281.5,295.5C 281.957,289.28 282.957,283.28 284.5,277.5 Z"/></g>
<g><path style="opacity:0.965" fill="#ac4f1f" d="M 254.5,284.5 C 254.568,288.57 253.568,292.237 251.5,295.5C 252.055,291.603 253.055,287.937 254.5,284.5 Z"/></g>
<g><path style="opacity:0.831" fill="#b2511f" d="M 226.5,290.5 C 226.573,292.027 225.906,293.027 224.5,293.5C 224.427,291.973 225.094,290.973 226.5,290.5 Z"/></g>
<g><path style="opacity:0.486" fill="#9f491e" d="M 111.5,277.5 C 113.397,286.665 115.064,295.998 116.5,305.5C 113.572,296.513 111.905,287.18 111.5,277.5 Z"/></g>
<g><path style="opacity:0.976" fill="#b85320" d="M 142.5,285.5 C 143.725,290.29 144.392,295.29 144.5,300.5C 142.762,295.783 142.096,290.783 142.5,285.5 Z"/></g>
<g><path style="opacity:0.757" fill="#a44b1e" d="M 240.5,290.5 C 240.405,292.786 239.738,294.786 238.5,296.5C 238.259,294.102 238.926,292.102 240.5,290.5 Z"/></g>
<g><path style="opacity:0.204" fill="#9e491d" d="M 157.5,295.5 C 156.5,295.5 155.5,295.5 154.5,295.5C 154.833,297.5 155.167,299.5 155.5,301.5C 152.952,298.791 152.952,296.124 155.5,293.5C 156.522,293.855 157.189,294.522 157.5,295.5 Z"/></g>
<g><path style="opacity:0.902" fill="#b1511f" d="M 224.5,293.5 C 224.262,295.404 223.262,296.738 221.5,297.5C 221.738,295.596 222.738,294.262 224.5,293.5 Z"/></g>
<g><path style="opacity:0.165" fill="#9e491d" d="M 281.5,295.5 C 280.942,300.709 279.942,305.709 278.5,310.5C 278.421,305.169 279.421,300.169 281.5,295.5 Z"/></g>
<g><path style="opacity:0.055" fill="#9b471d" d="M 161.5,299.5 C 163.027,299.427 164.027,300.094 164.5,301.5C 162.973,301.573 161.973,300.906 161.5,299.5 Z"/></g>
<g><path style="opacity:0.937" fill="#a74d1e" d="M 251.5,296.5 C 251.741,298.898 251.074,300.898 249.5,302.5C 249.595,300.214 250.262,298.214 251.5,296.5 Z"/></g>
<g><path style="opacity:0.965" fill="#c15721" d="M 219.5,299.5 C 218.5,302.5 216.5,304.5 213.5,305.5C 215.167,303.167 217.167,301.167 219.5,299.5 Z"/></g>
<g><path style="opacity:0.165" fill="#92441c" d="M 157.5,305.5 C 158.401,306.29 159.068,307.29 159.5,308.5C 157.952,308.179 157.285,307.179 157.5,305.5 Z"/></g>
<g><path style="opacity:1" fill="#bb5520" d="M 249.5,303.5 C 249.946,306.01 249.28,308.01 247.5,309.5C 247.595,307.214 248.262,305.214 249.5,303.5 Z"/></g>
<g><path style="opacity:0.612" fill="#a14a1e" d="M 174.5,308.5 C 176.553,308.402 178.22,309.069 179.5,310.5C 177.447,310.598 175.78,309.931 174.5,308.5 Z"/></g>
<g><path style="opacity:0.973" fill="#b1511f" d="M 179.5,310.5 C 186.49,311.714 193.49,311.714 200.5,310.5C 196.928,311.903 193.095,312.569 189,312.5C 185.523,312.672 182.356,312.006 179.5,310.5 Z"/></g>
<g><path style="opacity:0.055" fill="#9c481d" d="M 117.5,309.5 C 119.258,312.854 120.258,316.521 120.5,320.5C 118.742,317.146 117.742,313.479 117.5,309.5 Z"/></g>
<g><path style="opacity:0.098" fill="#9e491d" d="M 278.5,310.5 C 278.59,313.152 277.924,315.485 276.5,317.5C 276.41,314.848 277.076,312.515 278.5,310.5 Z"/></g>
<g><path style="opacity:0.024" fill="#9a471d" d="M 228.5,313.5 C 228.573,315.027 227.906,316.027 226.5,316.5C 226.427,314.973 227.094,313.973 228.5,313.5 Z"/></g>
<g><path style="opacity:0.906" fill="#b1511f" d="M 162.5,313.5 C 164.446,314.035 165.446,315.368 165.5,317.5C 164.026,316.564 163.026,315.23 162.5,313.5 Z"/></g>
<g><path style="opacity:0.031" fill="#9a471d" d="M 224.5,318.5 C 224.573,320.027 223.906,321.027 222.5,321.5C 222.427,319.973 223.094,318.973 224.5,318.5 Z"/></g>
<g><path style="opacity:0.6" fill="#a24b1e" d="M 152.5,318.5 C 153.906,318.973 154.573,319.973 154.5,321.5C 153.094,321.027 152.427,320.027 152.5,318.5 Z"/></g>
<g><path style="opacity:0.612" fill="#a04a1e" d="M 242.5,320.5 C 242.573,322.027 241.906,323.027 240.5,323.5C 240.427,321.973 241.094,320.973 242.5,320.5 Z"/></g>
<g><path style="opacity:0.957" fill="#ad4f1f" d="M 171.5,323.5 C 173.404,323.738 174.738,324.738 175.5,326.5C 173.596,326.262 172.262,325.262 171.5,323.5 Z"/></g>
<g><path style="opacity:0.788" fill="#ac4f1f" d="M 155.5,323.5 C 156.906,323.973 157.573,324.973 157.5,326.5C 156.094,326.027 155.427,325.027 155.5,323.5 Z"/></g>
<g><path style="opacity:0.631" fill="#9e491d" d="M 274.5,323.5 C 274.598,325.553 273.931,327.22 272.5,328.5C 272.402,326.447 273.069,324.78 274.5,323.5 Z"/></g>
<g><path style="opacity:0.804" fill="#ad4f1f" d="M 175.5,326.5 C 177.027,326.427 178.027,327.094 178.5,328.5C 176.973,328.573 175.973,327.906 175.5,326.5 Z"/></g>
<g><path style="opacity:0.902" fill="#b1511f" d="M 239.5,325.5 C 239.262,327.404 238.262,328.738 236.5,329.5C 236.738,327.596 237.738,326.262 239.5,325.5 Z"/></g>
<g><path style="opacity:0.851" fill="#b0501f" d="M 157.5,326.5 C 158.906,326.973 159.573,327.973 159.5,329.5C 158.094,329.027 157.427,328.027 157.5,326.5 Z"/></g>
<g><path style="opacity:0.659" fill="#a44c1e" d="M 178.5,328.5 C 180.027,328.427 181.027,329.094 181.5,330.5C 179.973,330.573 178.973,329.906 178.5,328.5 Z"/></g>
<g><path style="opacity:0.902" fill="#ae4f1f" d="M 236.5,329.5 C 236.262,331.404 235.262,332.738 233.5,333.5C 233.738,331.596 234.738,330.262 236.5,329.5 Z"/></g>
<g><path style="opacity:0.192" fill="#90431c" d="M 205.5,333.5 C 202.983,334.973 200.15,335.64 197,335.5C 194.967,335.494 193.134,335.161 191.5,334.5C 196.203,334.563 200.87,334.229 205.5,333.5 Z"/></g>
<g><path style="opacity:0.686" fill="#a24a1e" d="M 271.5,331.5 C 271.598,333.553 270.931,335.22 269.5,336.5C 269.402,334.447 270.069,332.78 271.5,331.5 Z"/></g>
<g><path style="opacity:0.949" fill="#ab4e1f" d="M 164.5,335.5 C 166.262,336.262 167.262,337.596 167.5,339.5C 165.738,338.738 164.738,337.404 164.5,335.5 Z"/></g>
<g><path style="opacity:0.914" fill="#b85320" d="M 231.5,335.5 C 229.5,339.5 226.5,342.5 222.5,344.5C 225.167,341.167 228.167,338.167 231.5,335.5 Z"/></g>
<g><path style="opacity:1" fill="#f26b25" d="M 124.5,331.5 C 127.568,332.022 130.568,332.855 133.5,334C 152.936,344.428 161.269,360.261 158.5,381.5C 157.078,380.075 155.411,379.075 153.5,378.5C 153.262,376.596 152.262,375.262 150.5,374.5C 149.833,374.5 149.5,374.167 149.5,373.5C 149.333,364.831 146.5,357.164 141,350.5C 136.82,346.753 132.653,343.087 128.5,339.5C 126.659,337.151 125.326,334.485 124.5,331.5 Z"/></g>
<g><path style="opacity:1" fill="#dc6223" d="M 128.5,339.5 C 132.653,343.087 136.82,346.753 141,350.5C 146.5,357.164 149.333,364.831 149.5,373.5C 148.5,373.167 147.833,372.5 147.5,371.5C 147.573,369.973 146.906,368.973 145.5,368.5C 144.146,366.327 142.979,363.327 142,359.5C 141.092,357.561 139.592,356.561 137.5,356.5C 137.773,354.549 137.107,353.049 135.5,352C 135.833,351.667 136.167,351.333 136.5,351C 134.821,349.341 133.155,347.841 131.5,346.5C 129.707,344.574 128.707,342.241 128.5,339.5 Z"/></g>
<g><path style="opacity:0.557" fill="#9e481e" d="M 267.5,341.5 C 267.598,343.553 266.931,345.22 265.5,346.5C 265.402,344.447 266.069,342.78 267.5,341.5 Z"/></g>
<g><path style="opacity:0.941" fill="#aa4e1f" d="M 218.5,346.5 C 216.97,348.346 214.97,349.346 212.5,349.5C 214.03,347.654 216.03,346.654 218.5,346.5 Z"/></g>
<g><path style="opacity:1" fill="#b1511f" d="M 131.5,346.5 C 133.155,347.841 134.821,349.341 136.5,351C 136.167,351.333 135.833,351.667 135.5,352C 137.107,353.049 137.773,354.549 137.5,356.5C 139.592,356.561 141.092,357.561 142,359.5C 142.979,363.327 144.146,366.327 145.5,368.5C 139.657,361.975 134.99,354.641 131.5,346.5 Z"/></g>
<g><path style="opacity:1" fill="#b75320" d="M 209.5,350.5 C 209.389,351.117 209.056,351.617 208.5,352C 206.527,352.495 204.527,352.662 202.5,352.5C 204.599,351.388 206.933,350.721 209.5,350.5 Z"/></g>
<g><path style="opacity:0.596" fill="#aa4e1e" d="M 185.5,350.5 C 191.03,352.125 196.697,352.791 202.5,352.5C 198.689,353.645 194.689,353.812 190.5,353C 188.509,352.626 186.842,351.793 185.5,350.5 Z"/></g>
<g><path style="opacity:0.302" fill="#99471d" d="M 260.5,356.5 C 260.573,358.027 259.906,359.027 258.5,359.5C 258.427,357.973 259.094,356.973 260.5,356.5 Z"/></g>
<g><path style="opacity:0.882" fill="#b0501f" d="M 257.5,361.5 C 257.443,362.609 257.11,363.609 256.5,364.5C 255.285,363.221 255.618,362.221 257.5,361.5 Z"/></g>
<g><path style="opacity:0.024" fill="#92441d" d="M 145.5,368.5 C 146.906,368.973 147.573,369.973 147.5,371.5C 146.094,371.027 145.427,370.027 145.5,368.5 Z"/></g>
<g><path style="opacity:0.055" fill="#9a471d" d="M 150.5,374.5 C 152.262,375.262 153.262,376.596 153.5,378.5C 151.738,377.738 150.738,376.404 150.5,374.5 Z"/></g>
<g><path style="opacity:0.941" fill="#a74c1e" d="M 153.5,378.5 C 155.411,379.075 157.078,380.075 158.5,381.5C 158.833,382.167 159.167,382.833 159.5,383.5C 156.911,382.581 154.911,380.914 153.5,378.5 Z"/></g>
<g><path style="opacity:0.678" fill="#ae501f" d="M 159.5,383.5 C 161.749,384.08 163.415,385.413 164.5,387.5C 162.251,386.92 160.585,385.587 159.5,383.5 Z"/></g>
<g><path style="opacity:0.631" fill="#a04a1e" d="M 164.5,387.5 C 166.027,387.427 167.027,388.094 167.5,389.5C 165.973,389.573 164.973,388.906 164.5,387.5 Z"/></g>
<g><path style="opacity:0.294" fill="#9d481d" d="M 232.5,390.5 C 231.85,390.196 231.183,389.863 230.5,389.5C 228.271,390.577 225.937,391.244 223.5,391.5C 225.491,389.939 227.824,388.939 230.5,388.5C 231.713,388.747 232.38,389.414 232.5,390.5 Z"/></g>
<g><path style="opacity:0.976" fill="#b1511f" d="M 175.5,393.5 C 177.898,393.259 179.898,393.926 181.5,395.5C 179.214,395.405 177.214,394.738 175.5,393.5 Z"/></g>
<g><path style="opacity:0.49" fill="#9d481d" d="M 232.5,390.5 C 233.931,391.78 234.598,393.447 234.5,395.5C 233.069,394.22 232.402,392.553 232.5,390.5 Z"/></g>
<g><path style="opacity:0.769" fill="#9f491e" d="M 181.5,395.5 C 191.473,396.366 201.473,396.699 211.5,396.5C 202.676,397.657 193.676,397.824 184.5,397C 183.263,396.768 182.263,396.268 181.5,395.5 Z"/></g>
<g><path style="opacity:0.565" fill="#9f491e" d="M 240.5,408.5 C 241.931,409.78 242.598,411.447 242.5,413.5C 241.069,412.22 240.402,410.553 240.5,408.5 Z"/></g>
<g><path style="opacity:0.008" fill="#9c481d" d="M 254.5,438.5 C 256.167,439.5 257.5,440.833 258.5,442.5C 256.167,442.167 254.833,440.833 254.5,438.5 Z"/></g>
<g><path style="opacity:0.878" fill="#ab4e1f" d="M 258.5,442.5 C 261.096,443.265 263.763,443.599 266.5,443.5C 266.5,443.833 266.5,444.167 266.5,444.5C 264.167,444.5 261.833,444.5 259.5,444.5C 259.167,443.833 258.833,443.167 258.5,442.5 Z"/></g>
</svg>
